<svg xmlns="http://www.w3.org/2000/svg" viewBox="0 0 1200 800" role="img" aria-labelledby="title desc">
  <title id="title">Indian flag</title>
  <desc id="desc">High resolution vector Indian tricolor flag with Ashoka Chakra.</desc>
  <rect width="1200" height="800" fill="#ffffff" />
  <rect width="1200" height="266.667" y="0" fill="#ff9933" />
  <rect width="1200" height="266.667" y="533.333" fill="#138808" />
  <g fill="none" stroke="#000080" stroke-linecap="round" transform="translate(600 400)">
    <circle r="82" stroke-width="9" />
    <circle r="14" fill="#000080" stroke="none" />
    <g stroke-width="4">
      <line x1="0" y1="-14" x2="0" y2="-78" />
      <line x1="0" y1="-14" x2="0" y2="-78" transform="rotate(15)" />
      <line x1="0" y1="-14" x2="0" y2="-78" transform="rotate(30)" />
      <line x1="0" y1="-14" x2="0" y2="-78" transform="rotate(45)" />
      <line x1="0" y1="-14" x2="0" y2="-78" transform="rotate(60)" />
      <line x1="0" y1="-14" x2="0" y2="-78" transform="rotate(75)" />
      <line x1="0" y1="-14" x2="0" y2="-78" transform="rotate(90)" />
      <line x1="0" y1="-14" x2="0" y2="-78" transform="rotate(105)" />
      <line x1="0" y1="-14" x2="0" y2="-78" transform="rotate(120)" />
      <line x1="0" y1="-14" x2="0" y2="-78" transform="rotate(135)" />
      <line x1="0" y1="-14" x2="0" y2="-78" transform="rotate(150)" />
      <line x1="0" y1="-14" x2="0" y2="-78" transform="rotate(165)" />
      <line x1="0" y1="-14" x2="0" y2="-78" transform="rotate(180)" />
      <line x1="0" y1="-14" x2="0" y2="-78" transform="rotate(195)" />
      <line x1="0" y1="-14" x2="0" y2="-78" transform="rotate(210)" />
      <line x1="0" y1="-14" x2="0" y2="-78" transform="rotate(225)" />
      <line x1="0" y1="-14" x2="0" y2="-78" transform="rotate(240)" />
      <line x1="0" y1="-14" x2="0" y2="-78" transform="rotate(255)" />
      <line x1="0" y1="-14" x2="0" y2="-78" transform="rotate(270)" />
      <line x1="0" y1="-14" x2="0" y2="-78" transform="rotate(285)" />
      <line x1="0" y1="-14" x2="0" y2="-78" transform="rotate(300)" />
      <line x1="0" y1="-14" x2="0" y2="-78" transform="rotate(315)" />
      <line x1="0" y1="-14" x2="0" y2="-78" transform="rotate(330)" />
      <line x1="0" y1="-14" x2="0" y2="-78" transform="rotate(345)" />
    </g>
  </g>
</svg>
